<?xml version="1.0" standalone="no"?><!DOCTYPE svg PUBLIC "-//W3C//DTD SVG 1.1//EN" "http://www.w3.org/Graphics/SVG/1.1/DTD/svg11.dtd"><svg t="1586433098563" class="icon" viewBox="0 0 1024 1024" version="1.1" xmlns="http://www.w3.org/2000/svg" p-id="3379" xmlns:xlink="http://www.w3.org/1999/xlink" width="128" height="128"><defs><style type="text/css"></style></defs><path d="M92.697215 355.119997l-11.190877-20.146852c-13.424754-26.850531-20.136619-54.454216-20.136619-82.803891 0-49.231261 17.530258-91.378174 52.591799-126.439714 35.062564-35.013445 77.208453-52.592822 126.439714-52.592822 40.284495 0 76.834946 12.69002 109.653399 38.050618l17.902742 13.424754L92.697215 355.119997zM240.402255 108.944248c-38.795585 0-72.357981 14.227026-100.707656 42.528606-28.348652 28.339442-42.518373 61.912072-42.518373 100.697423 0 16.461927 2.233877 31.337729 6.711865 44.762483l205.891254-170.08577C285.908682 114.91217 262.782985 108.944248 240.402255 108.944248zM786.444583 836.263222c-76.081793 76.091002-168.586626 114.131387-277.495058 114.131387s-201.785749-38.365796-278.621718-115.248837c-76.835969-76.835969-115.248837-169.703053-115.248837-278.621718 0-108.86136 38.412868-201.728444 115.248837-278.612509 76.835969-76.835969 169.713286-115.258047 278.621718-115.258047s201.785749 38.423101 278.621718 115.258047c76.835969 76.883041 115.248837 169.751149 115.248837 278.612509C902.82008 665.442718 864.025519 758.730381 786.444583 836.263222zM240.402255 818.359456l24.615631 24.615631-100.706633 102.950743-26.850531-26.859741L240.402255 818.359456zM761.828952 303.644625c-70.113871-70.123081-154.415882-105.184621-252.879428-105.184621-98.472755 0-182.765557 35.06154-252.879428 105.184621-70.123081 70.171176-105.184621 154.415882-105.184621 252.879428 0 98.472755 35.06154 182.765557 105.184621 252.888638 70.113871 70.160943 154.406672 105.175411 252.879428 105.175411 98.462522 0 182.765557-35.013445 252.879428-105.175411 70.123081-70.123081 105.184621-154.415882 105.184621-252.888638C867.013573 458.06153 831.952033 373.815801 761.828952 303.644625zM544.756031 592.33056 329.918012 592.33056l0-35.806507 179.032536 0L508.950548 270.073018l35.806507 0L544.757055 592.33056zM925.201833 355.119997 649.940652 124.613112l17.902742-13.424754c32.81743-25.360598 69.368904-38.050618 109.654422-38.050618 49.231261 0 91.378174 17.578354 126.438691 52.592822 35.06154 35.06154 52.592822 77.208453 52.592822 126.439714 0 29.886681-6.712889 57.443293-20.137643 82.803891L925.201833 355.119997zM708.119703 126.84699 914.010957 296.93276c4.477988-13.424754 6.712889-28.30158 6.712889-44.762483 0-38.785352-14.170744-72.357981-42.519396-100.697423-28.348652-28.30158-61.921281-42.528606-100.706633-42.528606C755.116063 108.944248 731.990367 114.91217 708.119703 126.84699zM777.497816 818.359456l102.94051 100.706633-26.850531 26.859741-100.706633-102.950743L777.497816 818.359456z" p-id="3380" fill="#ffffff"></path></svg>