<?xml version="1.0" standalone="no"?><!DOCTYPE svg PUBLIC "-//W3C//DTD SVG 1.1//EN" "http://www.w3.org/Graphics/SVG/1.1/DTD/svg11.dtd"><svg t="1586433129695" class="icon" viewBox="0 0 1024 1024" version="1.1" xmlns="http://www.w3.org/2000/svg" p-id="4599" xmlns:xlink="http://www.w3.org/1999/xlink" width="128" height="128"><defs><style type="text/css"></style></defs><path d="M792.8 348.9c9.5 46.6 14.3 100.9 14.3 163.2 0 62.2-4.8 116.6-14.3 163.2-9.5 46.6-22.5 84.8-39.1 114.7-16.5 29.9-37.5 54.1-62.7 72.6s-52.3 31.4-81 38.6c-28.7 7.3-61.4 10.9-98 10.9s-69.3-3.7-98-10.9c-28.7-7.3-55.8-20.2-81-38.6-25.3-18.5-46.2-42.6-62.7-72.6-16.5-29.9-29.6-68.2-39.1-114.7-9.5-46.6-14.3-100.9-14.3-163.2 0-62.2 4.8-116.6 14.3-163.2 9.5-46.6 22.5-84.8 39.1-114.7s37.5-54.1 62.7-72.6c25.3-18.4 52.3-31.4 81-38.6 28.7-7.3 61.4-11 98-11s69.3 3.7 98 10.9c28.7 7.3 55.8 20.2 81 38.6 25.3 18.5 46.2 42.6 62.7 72.6s29.5 68.2 39.1 114.8zM486.1 855.8l207.1-207.2L556.6 512l136.6-136.6-207.1-207.2V441L372.3 327.2l-41.5 41.5L473.7 512 330.8 655.3l41.5 41.5L486.1 583v272.8z m58-546.5l66.5 66.5-66.1 66.1-0.4-132.6z m0.5 272.8l66.1 66.1-66.5 66.5 0.4-132.6z" p-id="4600" fill="#ffffff"></path></svg>