<?xml version="1.0" standalone="no"?><!DOCTYPE svg PUBLIC "-//W3C//DTD SVG 1.1//EN" "http://www.w3.org/Graphics/SVG/1.1/DTD/svg11.dtd"><svg t="1586148067707" class="icon" viewBox="0 0 1024 1024" version="1.1" xmlns="http://www.w3.org/2000/svg" p-id="10291" xmlns:xlink="http://www.w3.org/1999/xlink" width="32" height="32"><defs><style type="text/css"></style></defs><path d="M788.608 339.328H657.28l-17.664-66.432a55.744 55.744 0 0 0-53.76-41.344H407.552c-25.216 0-47.232 17.024-53.76 41.344l-17.792 66.432H204.672a82.816 82.816 0 0 0-82.688 82.688v329.984c0 45.568 37.12 82.688 82.688 82.688h583.936c45.568 0 82.688-37.12 82.688-82.688V422.016c0-45.568-37.12-82.688-82.688-82.688zM496.64 724.224c-79.744 0-144.512-64.768-144.512-144.512C352.128 499.968 417.024 435.2 496.64 435.2s144.512 64.768 144.512 144.512c0 79.616-64.768 144.512-144.512 144.512z" p-id="10292" fill="#ffffff"></path></svg>