<?xml version="1.0" standalone="no"?><!DOCTYPE svg PUBLIC "-//W3C//DTD SVG 1.1//EN" "http://www.w3.org/Graphics/SVG/1.1/DTD/svg11.dtd"><svg t="1586147490932" class="icon" viewBox="0 0 1024 1024" version="1.1" xmlns="http://www.w3.org/2000/svg" p-id="2926" xmlns:xlink="http://www.w3.org/1999/xlink" width="32" height="32"><defs><style type="text/css"></style></defs><path d="M512 2.56C231.424 2.56 3.584 229.888 3.584 510.976S231.424 1018.88 512 1018.88s508.416-227.328 508.416-508.416S793.088 2.56 512 2.56z m0 941.568c-239.616 0-433.664-194.048-433.664-433.664C78.336 270.848 272.384 76.8 512 76.8s433.664 194.048 433.664 433.664-194.048 433.664-433.664 433.664z" fill="#ffffff" p-id="2927"></path><path d="M456.704 647.168l55.296 55.296 55.296-55.296c-30.208-30.72-80.384-30.72-110.592 0zM674.304 527.36c-4.608 0-9.216-2.048-12.8-5.632-82.432-82.432-216.064-82.432-298.496 0-7.168 7.168-18.944 7.168-26.112 0-7.168-7.168-7.168-18.944 0-26.112 96.768-96.768 253.952-96.768 350.208 0 7.168 7.168 7.168 18.944 0 26.112-3.584 4.096-8.192 5.632-12.8 5.632zM608.768 608.256c-4.608 0-9.216-2.048-12.8-5.632-22.528-22.528-52.224-34.816-83.456-34.816-31.744 0-61.44 12.288-83.456 34.816-7.168 7.168-18.944 7.168-26.112 0-7.168-7.168-7.168-18.944 0-26.112 29.184-29.184 68.096-45.568 109.568-45.568s80.384 16.384 109.568 45.568c7.168 7.168 7.168 18.944 0 26.112-4.096 3.584-8.704 5.632-13.312 5.632z" fill="#ffffff" p-id="2928"></path><path d="M732.672 446.976c-4.608 0-9.216-2.048-12.8-5.632-55.296-55.296-129.024-86.016-207.36-86.016s-152.064 30.72-207.36 86.016c-7.168 7.168-18.944 7.168-26.112 0-7.168-7.168-7.168-18.944 0-26.112C340.992 353.28 423.936 318.976 512 318.976s171.008 34.304 233.472 96.768c7.168 7.168 7.168 18.944 0 26.112-3.584 3.584-8.192 5.12-12.8 5.12z" fill="#ffffff" p-id="2929"></path></svg>