<?xml version="1.0" standalone="no"?><!DOCTYPE svg PUBLIC "-//W3C//DTD SVG 1.1//EN" "http://www.w3.org/Graphics/SVG/1.1/DTD/svg11.dtd"><svg t="1586147471689" class="icon" viewBox="0 0 1024 1024" version="1.1" xmlns="http://www.w3.org/2000/svg" p-id="2740" xmlns:xlink="http://www.w3.org/1999/xlink" width="32" height="32"><defs><style type="text/css"></style></defs><path d="M781.66217017 208.67517066c-9.29937744 0-17.25402856 3.29260253-23.82440138 9.88769579-6.61486816 6.59014916-9.88769508 14.52008057-9.88769579 23.78979492v539.29467726c0 9.26971435 3.27282691 17.30346656 9.88769579 23.78979492 6.57531762 6.59014916 14.52502465 9.88769508 23.82440138 9.88769579 9.29937744 0 17.26391602-3.29754663 23.8244021-9.88769579 6.60992408-6.48632836 9.88769508-14.52008057 9.88769507-23.78979492V242.35266137c0-9.26971435-3.27777099-17.19964576-9.88769507-23.78979492-6.56048608-6.59509253-14.52502465-9.88769508-23.8244021-9.88769579M511.99505592 410.85876441c-9.29937744 0-17.23425293 3.29260253-23.84417701 9.88769579-6.57531762 6.59014916-9.86792016 14.52008057-9.86792016 23.89361572v337.00726271c0 9.26971435 3.29754663 17.30346656 9.86792016 23.78979492 6.60992408 6.59014916 14.54479957 9.88769508 23.84417701 9.88769579 9.3092649 0 17.24414039-3.29754663 23.85406517-9.88769579 6.56048608-6.48632836 9.86792016-14.52008057 9.86792016-23.78979492V444.64007593c0-9.37353516-3.30743408-17.30346656-9.86792016-23.89361573-6.60992408-6.59509253-14.54479957-9.88769508-23.85406517-9.88769579m0-67.35992408c27.89318824 0 51.76208497 9.78387428 71.50286865 29.55926514 19.75561523 19.77539086 29.62353539 43.56518578 29.6235354 71.47814965v337.11108351c0 27.90801978-9.86792016 51.70275879-29.6235354 71.47814965-19.74572778 19.77539086-43.60968041 29.66308594-71.50286865 29.66308594-27.89318824 0-51.74725342-9.88769508-71.48309303-29.66308594-19.75561523-19.77539086-29.63342286-43.57012915-29.63342285-71.47814965V444.53625512c0-27.91296386 9.87780761-51.70275879 29.63342285-71.47814965 19.73583961-19.77539086 43.58990479-29.56420922 71.48309303-29.56420922M242.33782983 613.14617896c-9.3092649 0-17.26391602 3.29754663-23.83428955 9.88769579-6.60003662 6.59509253-9.89758325 14.52502465-9.89758325 23.7947383v134.81872558c0 9.27465844 3.29754663 17.30346656 9.89758325 23.794739 6.57531762 6.59014916 14.52502465 9.88769508 23.83428955 9.88769508 9.29937744 0 17.25402856-3.29754663 23.81451392-9.88769508 6.62475562-6.48632836 9.89758325-14.52008057 9.89758325-23.78979492V646.81872559c0-9.26971435-3.27282691-17.20458984-9.89758325-23.79473902-6.56048608-6.59014916-14.51513648-9.88769508-23.81451392-9.88769506m0-67.45880151c27.92285133 0 51.74725342 9.88769508 71.49298048 29.66308594 19.74572778 19.77539086 29.62353539 43.56518578 29.62353539 71.47814965v134.81872558c0 27.91790796-9.87780761 51.70770288-29.62353539 71.48309303-19.74572778 19.77539086-43.57012915 29.66308594-71.49298048 29.66308593-27.9327395 0-51.76208497-9.88769508-71.51275683-29.66308593C151.08923339 833.35009742 141.21142578 809.55535913 141.21142578 781.64733863V646.81872559c0-27.91296386 9.87780761-51.70770288 29.61364722-71.48309302 19.75561523-19.77539086 43.58001733-29.66308594 71.51275683-29.66308594M781.66217017 141.21142578c27.92285133 0 51.74725342 9.88769508 71.4929812 29.66308594C872.91076661 190.55102516 882.78857422 214.44464087 882.78857422 242.35266137v539.29467726c0 27.90801978-9.87780761 51.70275879-29.63342286 71.47814965-19.74572778 19.77539086-43.57012915 29.66308594-71.49298119 29.66308594-27.91296386 0-51.73736596-9.88769508-71.48309303-29.66308594-19.75561523-19.77539086-29.63342286-43.57012915-29.63342284-71.47814965V242.35266137c0-27.90801978 9.87780761-51.80657959 29.63342284-71.47814965 19.74572778-19.77539086 43.57012915-29.66308594 71.48309303-29.66308594" p-id="2741" fill="#ffffff"></path></svg>